<svg width="191" height="61" viewBox="0 0 191 61" fill="none" xmlns="http://www.w3.org/2000/svg">
<path d="M30.4917 60.53C24.909 60.53 19.8564 59.2227 15.3337 56.608C10.811 53.9933 7.20703 50.46 4.52169 46.008C1.90703 41.556 0.599693 36.6093 0.599693 31.168C0.599693 26.8573 1.41236 22.8293 3.03769 19.084C4.66303 15.3387 6.92436 12.0527 9.82169 9.226C12.7897 6.32866 16.1817 4.10266 19.9977 2.54799C23.8137 0.922665 27.877 0.11 32.1877 0.11C37.7704 0.11 42.823 1.41733 47.3457 4.032C51.8684 6.64666 55.437 10.18 58.0517 14.632C60.737 19.0133 62.0797 23.96 62.0797 29.472C62.0797 33.7827 61.267 37.8107 59.6417 41.556C58.0164 45.3013 55.7197 48.6227 52.7517 51.52C49.8544 54.3467 46.4977 56.5727 42.6817 58.198C38.9364 59.7527 34.873 60.53 30.4917 60.53ZM33.5657 51.944C37.311 51.944 40.2437 50.354 42.3637 47.174C44.4837 43.9233 45.5437 39.436 45.5437 33.712C45.5437 28.9067 44.837 24.6313 43.4237 20.886C42.0104 17.1407 40.067 14.1727 37.5937 11.982C35.1204 9.79133 32.2937 8.696 29.1137 8.696C25.3684 8.696 22.4357 10.3213 20.3157 13.572C18.1957 16.752 17.1357 21.204 17.1357 26.928C17.1357 31.6627 17.8424 35.938 19.2557 39.754C20.669 43.4993 22.6124 46.4673 25.0857 48.658C27.6297 50.8487 30.4564 51.944 33.5657 51.944ZM89.9204 60.53C74.1618 60.53 66.2824 46.1493 66.2824 17.388C66.2824 12.5827 66.4944 7.424 66.9184 1.912C68.6144 1.77066 70.9111 1.66467 73.8084 1.594C76.7764 1.52333 80.5571 1.488 85.1504 1.488C84.7264 8.55466 84.5144 14.844 84.5144 20.356C84.5144 31.2387 85.3624 39.2593 87.0584 44.418C88.8251 49.506 91.5104 52.05 95.1144 52.05C97.5171 52.05 99.9198 51.0607 102.322 49.082C104.796 47.1033 106.916 44.4887 108.682 41.238C108.612 35.6553 108.541 29.4013 108.47 22.476C108.47 15.48 108.47 8.30733 108.47 0.957996C111.368 0.957996 114.548 0.993329 118.01 1.06399C121.544 1.13466 124.441 1.24066 126.702 1.382C126.702 7.106 126.667 12.9007 126.596 18.766C126.596 24.6313 126.561 30.2493 126.49 35.62C126.49 40.9907 126.455 45.796 126.384 50.036C126.314 54.2053 126.243 57.456 126.172 59.788C123.416 59.9293 120.554 60.0353 117.586 60.106C114.618 60.1767 111.756 60.212 109 60.212C108.93 58.516 108.859 56.3253 108.788 53.64C102.711 58.2333 96.4218 60.53 89.9204 60.53ZM152.876 60.212C150.403 60.212 147.576 60.1413 144.396 60C141.287 59.9293 138.389 59.8587 135.704 59.788C135.633 57.668 135.563 54.6293 135.492 50.672C135.421 46.7147 135.351 42.1213 135.28 36.892C135.28 31.592 135.245 25.9387 135.174 19.932C135.174 13.8547 135.174 7.67133 135.174 1.382C136.729 1.31133 138.637 1.24066 140.898 1.17C143.159 1.09933 145.421 1.06399 147.682 1.06399C149.943 0.993329 151.851 0.957996 153.406 0.957996C153.406 3.00733 153.406 5.05667 153.406 7.106C156.162 4.91533 158.989 3.21933 161.886 2.01799C164.854 0.745998 167.716 0.11 170.472 0.11C174.076 0.11 177.362 1.09933 180.33 3.078C183.298 4.986 185.701 7.60066 187.538 10.922C189.446 14.2433 190.541 17.9887 190.824 22.158C187.997 23.0767 185.171 23.8893 182.344 24.596C179.517 25.3027 176.832 25.868 174.288 26.292C174.288 23.112 173.864 20.1793 173.016 17.494C172.239 14.8087 171.179 12.6533 169.836 11.028C168.493 9.40267 167.009 8.59 165.384 8.59C163.476 8.59 161.356 9.756 159.024 12.088C156.692 14.42 154.819 17.282 153.406 20.674C153.335 29.6487 153.265 37.6693 153.194 44.736C153.123 51.732 153.017 56.8907 152.876 60.212Z" fill="white"/>
</svg>
