<svg width="273" height="82" viewBox="0 0 273 82" fill="none" xmlns="http://www.w3.org/2000/svg">
<path d="M63.7971 81.212C59.9105 81.212 55.5291 81.212 50.6531 81.212C45.7771 81.212 40.7951 81.1767 35.7071 81.106C30.6898 81.106 25.8845 81.0707 21.2911 81C16.7685 81 12.8465 81 9.52512 81C6.20379 80.9293 3.87179 80.8587 2.52912 80.788L0.19712 71.566C9.31312 58.7753 17.2631 47.186 24.0471 36.798C30.9018 26.41 36.7671 17.0113 41.6431 8.602C37.8271 8.74333 33.6225 8.95533 29.0291 9.238C24.5065 9.52066 19.9485 9.83866 15.3551 10.192C10.7618 10.4747 6.48645 10.828 2.52912 11.252L1.78712 0.651998C7.44045 0.651998 13.1645 0.651998 18.9591 0.651998C24.7538 0.651998 30.3011 0.687331 35.6011 0.757997C40.9011 0.757997 45.6358 0.79333 49.8051 0.863996C54.0451 0.934661 57.4018 1.00533 59.8751 1.076L62.2071 8.602C60.0165 12.4887 57.6491 16.552 55.1051 20.792C52.5611 25.032 49.7345 29.696 46.6251 34.784C43.5158 39.8013 39.9825 45.4193 36.0251 51.638C32.0678 57.8567 27.5805 64.888 22.5631 72.732C29.2058 72.4493 36.0605 72.0607 43.1271 71.566C50.1938 71.0007 56.9425 70.4353 63.3731 69.87L63.7971 81.212ZM149.226 81.212C149.156 78.9507 149.085 75.8413 149.014 71.884C148.944 67.856 148.873 63.2273 148.802 57.998C148.802 52.698 148.767 47.0093 148.696 40.932C148.696 34.784 148.696 28.4593 148.696 21.958C150.251 21.958 152.159 21.9933 154.42 22.064C156.682 22.064 158.943 22.0993 161.204 22.17C163.536 22.2407 165.444 22.3113 166.928 22.382C166.928 24.1487 166.928 25.9507 166.928 27.788C172.935 23.336 179.048 21.11 185.266 21.11C190.99 21.11 195.619 23.124 199.152 27.152C202.686 31.18 205.23 37.6107 206.784 46.444C208.41 55.2773 209.222 66.8667 209.222 81.212C207.597 81.212 205.654 81.1767 203.392 81.106C201.131 81.106 198.905 81.0707 196.714 81C194.524 80.9293 192.616 80.8587 190.99 80.788C190.99 68.28 190.637 58.2807 189.93 50.79C189.224 43.2993 188.058 37.8933 186.432 34.572C184.807 31.2507 182.616 29.59 179.86 29.59C177.599 29.59 175.302 30.544 172.97 32.452C170.638 34.36 168.624 36.8687 166.928 39.978C166.858 45.9847 166.787 51.6733 166.716 57.044C166.716 62.4147 166.681 67.1847 166.61 71.354C166.54 75.4527 166.469 78.5973 166.398 80.788C164.208 80.8587 161.522 80.9293 158.342 81C155.233 81.1413 152.194 81.212 149.226 81.212ZM243.658 81.53C237.934 81.53 232.775 80.2227 228.182 77.608C223.659 74.9227 220.055 71.3187 217.37 66.796C214.755 62.2027 213.448 57.0087 213.448 51.214C213.448 45.4193 214.72 40.2607 217.264 35.738C219.878 31.2153 223.412 27.6467 227.864 25.032C232.386 22.4173 237.51 21.11 243.234 21.11C248.604 21.11 253.41 22.3113 257.65 24.714C261.96 27.046 265.423 30.332 268.038 34.572C270.723 38.812 272.313 43.794 272.808 49.518L230.726 57.362C232.068 61.9553 234.188 65.7007 237.086 68.598C239.983 71.4247 243.234 72.838 246.838 72.838C250.159 72.838 253.445 71.7073 256.696 69.446C259.946 67.114 262.455 64.146 264.222 60.542L271.748 66.902C268.285 71.566 264.116 75.17 259.24 77.714C254.364 80.258 249.17 81.53 243.658 81.53ZM229.348 46.974C229.348 47.398 229.348 47.7513 229.348 48.034L254.046 44.642C253.551 40.1193 252.102 36.48 249.7 33.724C247.297 30.968 244.364 29.59 240.902 29.59C237.298 29.59 234.471 31.1447 232.422 34.254C230.372 37.2927 229.348 41.5327 229.348 46.974Z" fill="#738F81"/>
</svg>
